<?xml version="1.0" standalone="no"?>
<!DOCTYPE svg PUBLIC "-//W3C//DTD SVG 20010904//EN"
 "http://www.w3.org/TR/2001/REC-SVG-20010904/DTD/svg10.dtd">
<svg version="1.0" xmlns="http://www.w3.org/2000/svg"
 width="300.000000pt" height="300.000000pt" viewBox="0 0 300.000000 300.000000"
 preserveAspectRatio="xMidYMid meet">
<g transform="translate(0.000000,300.000000) scale(0.050000,-0.050000)"
fill="currentColor" stroke="none">
<path d="M1750 5683 c-118 -23 -292 -115 -411 -220 l-106 -92 14 69 c8 39 19
104 26 145 l12 75 -242 0 -241 0 -21 -75 c-12 -41 -30 -133 -41 -205 -11 -71
-38 -229 -61 -350 -23 -121 -49 -274 -58 -340 -9 -66 -26 -160 -37 -210 -12
-49 -36 -184 -55 -300 -19 -115 -46 -267 -62 -336 -15 -70 -27 -149 -27 -176
l0 -49 265 5 c307 7 270 -28 325 306 178 1061 227 1209 437 1312 335 162 474
-5 385 -465 -16 -81 -43 -232 -61 -337 -18 -104 -45 -257 -60 -340 -16 -82
-43 -235 -60 -340 -18 -104 -46 -266 -63 -360 -31 -174 -65 -369 -118 -670
-16 -94 -43 -247 -60 -340 -38 -216 -82 -464 -120 -680 -90 -515 -128 -724
-143 -775 -9 -32 13 -35 272 -35 l281 0 0 51 c0 28 13 107 29 175 15 68 39
194 53 279 l24 156 141 119 141 120 179 -450 178 -450 289 0 c159 0 285 7 281
15 -22 46 -56 128 -94 225 -24 61 -51 128 -60 150 -9 22 -46 112 -81 200 -35
88 -72 178 -81 200 -9 22 -36 90 -60 150 -23 61 -51 127 -63 148 -11 20 -32
72 -47 114 l-27 76 164 145 c90 80 232 209 314 287 83 77 194 179 248 226 l98
84 -331 0 -331 0 -362 -341 c-400 -378 -387 -374 -334 -96 16 81 44 233 62
337 18 105 45 258 61 340 15 83 42 236 59 340 18 105 45 262 60 350 16 88 42
237 58 330 17 94 46 256 64 360 92 517 223 719 491 755 243 33 294 -118 206
-610 -16 -91 -42 -241 -59 -335 -73 -416 -93 -526 -109 -610 -24 -123 -30
-120 258 -120 l258 0 30 145 c32 155 70 364 123 685 19 110 46 254 61 320 41
184 58 506 30 605 -102 379 -663 437 -1085 112 -71 -55 -127 -85 -131 -72 -68
203 -373 324 -675 268z"/>
<path d="M4210 2943 c-490 -147 -830 -671 -830 -1277 0 -724 684 -1016 1227
-525 l118 106 -14 -88 c-84 -548 -190 -679 -550 -679 -178 0 -261 53 -261 169
0 46 -8 51 -75 51 -41 0 -151 14 -245 30 -93 16 -204 30 -245 30 l-75 0 0
-153 c0 -269 130 -417 437 -496 180 -47 634 -42 810 8 494 142 625 349 782
1246 185 1054 206 1172 242 1355 16 83 29 162 29 175 0 33 -511 36 -531 4 -7
-12 -18 -74 -24 -138 l-10 -116 -84 102 c-163 201 -435 277 -701 196z m428
-403 c385 -110 294 -921 -128 -1146 -125 -67 -340 -62 -434 10 -116 89 -142
168 -130 404 26 529 320 839 692 732z"/>
</g>
</svg>
